<svg xmlns="http://www.w3.org/2000/svg" viewBox="0 0 64 64" role="img" aria-labelledby="title">
  <title id="title">Full rosette plaza tile in warm terracotta colors</title>
  <path d="M32 7 60 22v12L32 51 4 35V22Z" fill="#663327"/>
  <path d="m4 22 28 16v13L4 35Z" fill="#9b5038"/>
  <path d="m60 22-28 16v13l28-17Z" fill="#48231e"/>
  <path d="M32 7 60 22 32 38 4 22Z" fill="#d1ad68" stroke="#38231c" stroke-width="2"/>
  <g transform="matrix(.75 .40625 -.75 .40625 32 9)">
    <rect x="1" y="1" width="30" height="30" fill="#ead39a" stroke="#9a6139" stroke-width="1.5"/>
    <g stroke="#c18a55" stroke-width=".65" opacity=".9">
      <path d="M8 1v30M16 1v30M24 1v30M1 8h30M1 16h30M1 24h30"/>
    </g>
    <g fill="#a54230">
      <rect x="13" y="1" width="6" height="6"/><rect x="7" y="7" width="6" height="6"/><rect x="19" y="7" width="6" height="6"/>
      <rect x="1" y="13" width="6" height="6"/><rect x="25" y="13" width="6" height="6"/>
      <rect x="7" y="19" width="6" height="6"/><rect x="19" y="19" width="6" height="6"/><rect x="13" y="25" width="6" height="6"/>
    </g>
    <g fill="#c46a3d"><rect x="13" y="7" width="6" height="6"/><rect x="7" y="13" width="6" height="6"/><rect x="19" y="13" width="6" height="6"/><rect x="13" y="19" width="6" height="6"/></g>
    <rect x="13" y="13" width="6" height="6" fill="#31585d"/>
  </g>
</svg>
